<svg width="72" height="72" viewBox="0 0 72 72" fill="none" xmlns="http://www.w3.org/2000/svg">
<path fill-rule="evenodd" clip-rule="evenodd" d="M0 4.61538C0 2.06638 2.06638 0 4.61538 0H67.3846C69.9336 0 72 2.06638 72 4.61538V67.3846C72 69.9336 69.9336 72 67.3846 72H4.61538C2.06638 72 0 69.9336 0 67.3846V4.61538ZM9.23077 9.23077V62.7692H62.7692V9.23077H9.23077Z" fill="#F8B330"/>
<path fill-rule="evenodd" clip-rule="evenodd" d="M25.8295 17.077C28.3785 17.0677 30.4523 19.1266 30.4615 21.6756C30.4668 23.1473 31.0539 24.5573 32.0945 25.5979C33.1312 26.6346 34.5343 27.221 36 27.2307C37.4657 27.221 38.8688 26.6346 39.9055 25.5979C40.9462 24.5573 41.5332 23.1473 41.5385 21.6756C41.5477 19.1266 43.6216 17.0677 46.1705 17.077C48.7195 17.0862 50.7784 19.16 50.7692 21.709C50.7551 25.6173 49.1962 29.3615 46.4326 32.1251C43.669 34.8887 39.9249 36.4474 36.0167 36.4615L36 31.8462L35.9833 36.4615C32.0751 36.4474 28.331 34.8887 25.5674 32.1251C22.8038 29.3615 21.2449 25.6173 21.2308 21.709C21.2216 19.16 23.2805 17.0862 25.8295 17.077Z" fill="#F8B330"/>
</svg>
