<svg width="162" height="49" viewBox="0 0 162 49" fill="none" xmlns="http://www.w3.org/2000/svg">
<path fill-rule="evenodd" clip-rule="evenodd" d="M0 3.14103C0 1.40629 1.40653 0 3.14156 0H45.8668C47.6019 0 49.0084 1.40629 49.0084 3.14103V45.859C49.0084 47.5937 47.6019 49 45.8668 49H3.14156C1.40653 49 0 47.5937 0 45.859V3.14103ZM6.28313 6.28205V42.7179H42.7253V6.28205H6.28313Z" fill="#27497F"/>
<path fill-rule="evenodd" clip-rule="evenodd" d="M17.5814 11.6218C19.3164 11.6156 20.728 13.0168 20.7343 14.7515C20.7379 15.753 21.1375 16.7126 21.8458 17.4208C22.5515 18.1263 23.5065 18.5255 24.5042 18.532C25.5018 18.5255 26.4569 18.1263 27.1625 17.4208C27.8709 16.7126 28.2705 15.753 28.2741 14.7515C28.2804 13.0168 29.692 11.6156 31.427 11.6218C33.162 11.6281 34.5634 13.0395 34.5572 14.7742C34.5475 17.434 33.4865 19.9822 31.6054 21.8629C29.7243 23.7437 27.1757 24.8045 24.5155 24.8141L24.5042 21.6731L24.4928 24.8141C21.8326 24.8045 19.2841 23.7437 17.403 21.8629C15.5219 19.9822 14.4608 17.434 14.4512 14.7742C14.4449 13.0395 15.8463 11.6281 17.5814 11.6218Z" fill="#27497F"/>
<path d="M140.173 30.4829H148.553V34.7084H135.64V13.7415H148.231V17.9378H140.173V22.0756H147.441V26.1842H140.173V30.4829Z" fill="#27497F"/>
<path d="M132.145 34.7084H127.524L125.462 21.0229L119.203 34.6645H118.091L111.832 21.0375L109.77 34.7084H105.149L108.425 13.7415H112.973L118.647 26.5936L124.336 13.7415H128.898L132.145 34.7084Z" fill="#27497F"/>
<path d="M91.9586 35.1616C90.3792 35.1616 88.8973 34.8838 87.5129 34.3282C86.1285 33.7628 84.9391 32.9976 83.9447 32.0326C82.96 31.0676 82.1801 29.9076 81.6049 28.5527C81.0394 27.1978 80.7567 25.7552 80.7567 24.2248C80.7567 22.6945 81.0394 21.2518 81.6049 19.8969C82.1801 18.542 82.96 17.3821 83.9447 16.417C84.9391 15.452 86.1285 14.6917 87.5129 14.1361C88.8973 13.5708 90.3792 13.2881 91.9586 13.2881C93.5282 13.2881 95.0003 13.5659 96.3749 14.1215C97.7593 14.6771 98.939 15.4423 99.9139 16.417C100.899 17.3821 101.674 18.542 102.239 19.8969C102.805 21.2421 103.087 22.6847 103.087 24.2248C103.087 25.7649 102.805 27.2124 102.239 28.5674C101.674 29.9125 100.899 31.0725 99.9139 32.0472C98.939 33.0122 97.7593 33.7725 96.3749 34.3282C95.0003 34.8838 93.5282 35.1616 91.9586 35.1616ZM87.2643 28.9768C88.5317 30.2537 90.0965 30.8921 91.9586 30.8921C93.8207 30.8921 95.3757 30.2586 96.6236 28.9914C97.8715 27.7144 98.4954 26.1256 98.4954 24.2248C98.4954 22.3241 97.8715 20.7401 96.6236 19.4729C95.3757 18.2057 93.8207 17.5721 91.9586 17.5721C90.0965 17.5721 88.5317 18.2106 87.2643 19.4875C85.9969 20.7644 85.3632 22.3436 85.3632 24.2248C85.3632 26.1061 85.9969 27.6901 87.2643 28.9768Z" fill="#27497F"/>
<path d="M68.5019 35.1616C66.9908 35.1616 65.5625 34.8838 64.2171 34.3282C62.8815 33.7628 61.736 32.9976 60.7805 32.0326C59.8251 31.0676 59.0696 29.9125 58.5139 28.5674C57.9582 27.2125 57.6803 25.7747 57.6803 24.2541C57.6803 22.714 57.9582 21.2665 58.5139 19.9116C59.0696 18.5567 59.8251 17.3967 60.7805 16.4317C61.736 15.4667 62.8815 14.7064 64.2171 14.1508C65.5625 13.5854 66.9908 13.3027 68.5019 13.3027C71.0465 13.3027 73.2498 14.0728 75.1119 15.6129C76.9837 17.153 78.1634 19.1659 78.6509 21.6515H74.1028C73.6641 20.4038 72.9476 19.4242 71.9531 18.7126C70.9685 17.9913 69.8181 17.6306 68.5019 17.6306C66.7276 17.6306 65.2457 18.2642 64.0563 19.5314C62.8669 20.7888 62.2722 22.3631 62.2722 24.2541C62.2722 26.1354 62.8669 27.7047 64.0563 28.9622C65.2457 30.2098 66.7276 30.8337 68.5019 30.8337C69.8766 30.8337 71.066 30.4487 72.0701 29.6786C73.0743 28.8988 73.7665 27.8412 74.1467 26.5058H78.724C78.2463 29.0986 77.0715 31.1895 75.1996 32.7783C73.3278 34.3672 71.0952 35.1616 68.5019 35.1616Z" fill="#27497F"/>
<ellipse cx="157.576" cy="30.2847" rx="4.42437" ry="4.42361" fill="#27497F"/>
</svg>
