<svg width="238" height="72" viewBox="0 0 238 72" fill="none" xmlns="http://www.w3.org/2000/svg">
<path fill-rule="evenodd" clip-rule="evenodd" d="M0 4.61538C0 2.06638 2.06638 0 4.61538 0H67.3846C69.9336 0 72 2.06638 72 4.61538V67.3846C72 69.9336 69.9336 72 67.3846 72H4.61538C2.06638 72 0 69.9336 0 67.3846V4.61538ZM9.23077 9.23077V62.7692H62.7692V9.23077H9.23077Z" fill="#F8B330"/>
<path fill-rule="evenodd" clip-rule="evenodd" d="M25.8295 17.077C28.3785 17.0677 30.4523 19.1266 30.4615 21.6756C30.4668 23.1473 31.0539 24.5573 32.0945 25.5979C33.1312 26.6346 34.5343 27.221 36 27.2307C37.4657 27.221 38.8688 26.6346 39.9055 25.5979C40.9462 24.5573 41.5332 23.1473 41.5385 21.6756C41.5477 19.1266 43.6216 17.0677 46.1705 17.077C48.7195 17.0862 50.7784 19.16 50.7692 21.709C50.7551 25.6173 49.1962 29.3615 46.4326 32.1251C43.669 34.8887 39.9249 36.4474 36.0167 36.4615L36 31.8462L35.9833 36.4615C32.0751 36.4474 28.331 34.8887 25.5674 32.1251C22.8038 29.3615 21.2449 25.6173 21.2308 21.709C21.2216 19.16 23.2805 17.0862 25.8295 17.077Z" fill="#F8B330"/>
<path d="M205.934 44.791H218.244V51H199.273V20.1914H217.771V26.3574H205.934V32.4375H216.611V38.4746H205.934V44.791Z" fill="#27497F"/>
<path d="M194.139 51H187.35L184.32 30.8906L175.125 50.9355H173.492L164.297 30.9121L161.268 51H154.479L159.291 20.1914H165.973L174.309 39.0762L182.666 20.1914H189.369L194.139 51Z" fill="#27497F"/>
<path d="M135.1 51.666C132.779 51.666 130.602 51.2578 128.568 50.4414C126.535 49.6107 124.787 48.4863 123.326 47.0684C121.88 45.6504 120.734 43.946 119.889 41.9551C119.058 39.9642 118.643 37.8444 118.643 35.5957C118.643 33.347 119.058 31.2272 119.889 29.2363C120.734 27.2454 121.88 25.541 123.326 24.123C124.787 22.7051 126.535 21.5879 128.568 20.7715C130.602 19.9408 132.779 19.5254 135.1 19.5254C137.406 19.5254 139.568 19.9336 141.588 20.75C143.622 21.5664 145.355 22.6908 146.787 24.123C148.234 25.541 149.372 27.2454 150.203 29.2363C151.034 31.2129 151.449 33.3327 151.449 35.5957C151.449 37.8587 151.034 39.9857 150.203 41.9766C149.372 43.9531 148.234 45.6576 146.787 47.0898C145.355 48.5078 143.622 49.625 141.588 50.4414C139.568 51.2578 137.406 51.666 135.1 51.666ZM128.203 42.5781C130.065 44.4544 132.364 45.3926 135.1 45.3926C137.835 45.3926 140.12 44.4616 141.953 42.5996C143.786 40.7233 144.703 38.3887 144.703 35.5957C144.703 32.8027 143.786 30.4753 141.953 28.6133C140.12 26.7513 137.835 25.8203 135.1 25.8203C132.364 25.8203 130.065 26.7585 128.203 28.6348C126.341 30.5111 125.41 32.8314 125.41 35.5957C125.41 38.36 126.341 40.6875 128.203 42.5781Z" fill="#27497F"/>
<path d="M100.639 51.666C98.4186 51.666 96.3203 51.2578 94.3438 50.4414C92.3815 49.6107 90.6986 48.4863 89.2949 47.0684C87.8913 45.6504 86.7812 43.9531 85.9648 41.9766C85.1484 39.9857 84.7402 37.873 84.7402 35.6387C84.7402 33.3757 85.1484 31.2487 85.9648 29.2578C86.7812 27.2669 87.8913 25.5625 89.2949 24.1445C90.6986 22.7266 92.3815 21.6094 94.3438 20.793C96.3203 19.9622 98.4186 19.5469 100.639 19.5469C104.377 19.5469 107.614 20.6784 110.35 22.9414C113.1 25.2044 114.833 28.1621 115.549 31.8145H108.867C108.223 29.9811 107.17 28.5417 105.709 27.4961C104.262 26.4362 102.572 25.9062 100.639 25.9062C98.0319 25.9062 95.8548 26.8372 94.1074 28.6992C92.36 30.5469 91.4863 32.86 91.4863 35.6387C91.4863 38.403 92.36 40.709 94.1074 42.5566C95.8548 44.39 98.0319 45.3066 100.639 45.3066C102.658 45.3066 104.406 44.7409 105.881 43.6094C107.356 42.4635 108.373 40.9095 108.932 38.9473H115.656C114.954 42.7572 113.229 45.8294 110.479 48.1641C107.729 50.4987 104.449 51.666 100.639 51.666Z" fill="#27497F"/>
<circle cx="231.5" cy="44.5" r="6.5" fill="#F8B330"/>
</svg>
